<svg width="82" height="86" viewBox="0 0 82 86" fill="none" xmlns="http://www.w3.org/2000/svg">
<g clip-path="url(#clip0_6_10)">
<path fill-rule="evenodd" clip-rule="evenodd" d="M67.8266 29.2995C67.8266 53.1727 55.0669 78.5387 40.9645 78.5387C26.8621 78.5387 14.1024 53.3081 14.1024 29.2995C14.1024 5.29091 26.9961 0 40.9645 0C54.9329 0 67.8266 5.42628 67.8266 29.2995Z" fill="#A758F0"/>
<path fill-rule="evenodd" clip-rule="evenodd" d="M40.9645 0C54.9329 0 67.8266 5.42628 67.8266 29.2995C67.8266 53.1727 55.0669 78.5387 40.9645 78.5387C26.8621 78.5387 14.1024 53.3081 14.1024 29.2995L40.9645 0Z" fill="#9342DE"/>
<path fill-rule="evenodd" clip-rule="evenodd" d="M40.9645 0C54.9329 0 67.8266 5.42628 67.8266 29.2995C67.8266 53.1727 55.0669 78.5387 40.9645 78.5387V0Z" fill="#651FA6"/>
<path fill-rule="evenodd" clip-rule="evenodd" d="M34.6525 13.5645C34.6525 15.8704 32.7726 19.5334 30.3542 19.5334C28.071 19.5334 26.057 16.0069 26.057 13.5645C26.057 11.2586 27.937 9.22464 30.3542 9.22464C32.6374 9.22464 34.6525 11.1232 34.6525 13.5645Z" fill="#022728"/>
<path d="M30.3538 17.9056C32.7277 17.9056 34.6521 15.962 34.6521 13.5645C34.6521 11.1671 32.7277 9.22351 30.3538 9.22351C27.9799 9.22351 26.0555 11.1671 26.0555 13.5645C26.0555 15.962 27.9799 17.9056 30.3538 17.9056Z" fill="#00FFF2"/>
<path fill-rule="evenodd" clip-rule="evenodd" d="M27.2654 10.4453C28.8772 8.81746 31.5625 8.81746 33.3084 10.4453C34.9202 12.0732 34.9202 14.7852 33.3084 16.5496L27.2654 10.4453Z" fill="#16D8D8"/>
<path d="M30.3538 16.0058C31.6888 16.0058 32.771 14.9128 32.771 13.5645C32.771 12.2163 31.6888 11.1233 30.3538 11.1233C29.0188 11.1233 27.9366 12.2163 27.9366 13.5645C27.9366 14.9128 29.0188 16.0058 30.3538 16.0058Z" fill="#00FFF2"/>
<path fill-rule="evenodd" clip-rule="evenodd" d="M30.3538 16.0069C29.0112 16.0069 27.9366 14.9217 27.9366 13.5645C27.9366 12.2085 29.0112 11.1233 30.3538 11.1233V16.0069Z" fill="#16D8D8"/>
<path d="M28.474 13.1584C29.2902 13.1584 29.9519 12.4902 29.9519 11.6659C29.9519 10.8416 29.2902 10.1734 28.474 10.1734C27.6579 10.1734 26.9962 10.8416 26.9962 11.6659C26.9962 12.4902 27.6579 13.1584 28.474 13.1584Z" fill="#EBFFFD"/>
<path d="M32.7712 16.4131C33.142 16.4131 33.4425 16.1096 33.4425 15.7352C33.4425 15.3607 33.142 15.0572 32.7712 15.0572C32.4005 15.0572 32.0999 15.3607 32.0999 15.7352C32.0999 16.1096 32.4005 16.4131 32.7712 16.4131Z" fill="#EBFFFD"/>
<path fill-rule="evenodd" clip-rule="evenodd" d="M55.8735 13.5645C55.8735 15.8704 53.9927 19.5334 51.5752 19.5334C49.2923 19.5334 47.2769 16.0069 47.2769 13.5645C47.2769 11.2586 49.1582 9.22464 51.5752 9.22464C53.9927 9.22464 55.8735 11.1232 55.8735 13.5645Z" fill="#0B6382"/>
<path d="M51.5752 17.9056C53.9493 17.9056 55.8735 15.962 55.8735 13.5645C55.8735 11.1671 53.9493 9.22351 51.5752 9.22351C49.2012 9.22351 47.2769 11.1671 47.2769 13.5645C47.2769 15.962 49.2012 17.9056 51.5752 17.9056Z" fill="#00FFF2"/>
<path fill-rule="evenodd" clip-rule="evenodd" d="M48.6205 10.4453C50.2325 8.81746 52.918 8.81746 54.6648 10.4453C56.2757 12.0732 56.2757 14.7852 54.6648 16.5496L48.6205 10.4453Z" fill="#16D8D8"/>
<path d="M51.5748 16.0058C52.9101 16.0058 53.9923 14.9128 53.9923 13.5645C53.9923 12.2163 52.9101 11.1233 51.5748 11.1233C50.24 11.1233 49.1578 12.2163 49.1578 13.5645C49.1578 14.9128 50.24 16.0058 51.5748 16.0058Z" fill="#00FFF2"/>
<path fill-rule="evenodd" clip-rule="evenodd" d="M51.5748 16.0069C50.2325 16.0069 49.1578 14.9217 49.1578 13.5645C49.1578 12.2085 50.2325 11.1233 51.5748 11.1233V16.0069Z" fill="#16D8D8"/>
<path d="M49.6952 13.1584C50.5112 13.1584 51.1731 12.4902 51.1731 11.6659C51.1731 10.8416 50.5112 10.1734 49.6952 10.1734C48.8791 10.1734 48.2172 10.8416 48.2172 11.6659C48.2172 12.4902 48.8791 13.1584 49.6952 13.1584Z" fill="#EBFFFD"/>
<path d="M53.9927 16.4131C54.3632 16.4131 54.664 16.1096 54.664 15.7352C54.664 15.3607 54.3632 15.0572 53.9927 15.0572C53.6217 15.0572 53.3213 15.3607 53.3213 15.7352C53.3213 16.1096 53.6217 16.4131 53.9927 16.4131Z" fill="#EBFFFD"/>
<path d="M40.9645 86C50.6074 86 58.4246 85.089 58.4246 83.9651C58.4246 82.8407 50.6074 81.9297 40.9645 81.9297C31.3216 81.9297 23.5044 82.8407 23.5044 83.9651C23.5044 85.089 31.3216 86 40.9645 86Z" fill="#D3D1DA"/>
<path fill-rule="evenodd" clip-rule="evenodd" d="M30.4881 24.0098L24.8471 17.2275H14.5058C14.3717 18.5835 14.2365 19.9407 14.2365 19.9407H23.7726L30.22 26.7229H39.6222V24.0098H30.4881Z" fill="#00FFF2"/>
<path fill-rule="evenodd" clip-rule="evenodd" d="M14.1024 19.9407H23.7724L30.2199 26.7229H39.6218V25.9084L30.3539 25.0951L24.847 18.5835L14.1024 19.9407Z" fill="#16D8D8"/>
<path fill-rule="evenodd" clip-rule="evenodd" d="M51.4408 24.0098L57.0818 17.2275H67.4233C67.5585 18.5835 67.6926 19.9407 67.6926 19.9407H58.1565L51.7089 26.7229H42.308V24.0098H51.4408Z" fill="#00FFF2"/>
<path fill-rule="evenodd" clip-rule="evenodd" d="M67.8266 19.9407H58.1565L51.7089 26.7229H42.308V25.9084L51.5748 25.0951L57.0818 18.5835L67.8266 19.9407Z" fill="#16D8D8"/>
<path d="M40.9645 27.6716C42.448 27.6716 43.6508 26.4569 43.6508 24.9585C43.6508 23.4601 42.448 22.2454 40.9645 22.2454C39.4806 22.2454 38.278 23.4601 38.278 24.9585C38.278 26.4569 39.4806 27.6716 40.9645 27.6716Z" fill="#00FFF2"/>
<path fill-rule="evenodd" clip-rule="evenodd" d="M43.6508 24.9585C43.6508 26.4511 42.4421 27.6717 40.9645 27.6717C39.4865 27.6717 38.278 26.4511 38.278 24.9585H43.6508Z" fill="#16D8D8"/>
<path fill-rule="evenodd" clip-rule="evenodd" d="M14.2365 29.4349L14.1025 29.1642C14.1025 29.2996 13.9685 29.2996 13.9685 29.4349C13.9685 45.3053 19.3414 61.4478 27.3996 70.6713V34.0467L22.4299 29.4349H14.2365Z" fill="#A758F0"/>
<path fill-rule="evenodd" clip-rule="evenodd" d="M14.2365 28.4862L14.1025 28.7569C14.1025 28.8923 13.9685 29.1642 13.9685 29.2996C13.9685 45.1699 19.3414 61.5828 27.3996 70.8063V33.5041L14.2365 28.4862Z" fill="#651FA6"/>
<path fill-rule="evenodd" clip-rule="evenodd" d="M67.5585 29.4349L67.6926 29.1642C67.6926 29.2996 67.8266 29.2996 67.8266 29.4349C67.8266 45.3053 62.4536 60.7697 54.3956 70.1286V34.0467L59.3652 29.4349H67.5585Z" fill="#A758F0"/>
<path fill-rule="evenodd" clip-rule="evenodd" d="M67.6926 28.4862V28.7569C67.6926 28.8923 67.8266 29.1642 67.8266 29.2996C67.8266 45.1699 62.4536 61.5828 54.3956 70.8063V33.5041L67.6926 28.4862Z" fill="#9342DE"/>
<path d="M6.84956 58.599C10.6325 58.599 13.6991 55.5018 13.6991 51.6816C13.6991 47.861 10.6325 44.7638 6.84956 44.7638C3.06665 44.7638 0 47.861 0 51.6816C0 55.5018 3.06665 58.599 6.84956 58.599Z" fill="#A758F0"/>
<path fill-rule="evenodd" clip-rule="evenodd" d="M6.84955 44.8992C10.6106 44.8992 13.6991 48.0187 13.6991 51.817C13.6991 55.6153 10.6106 58.7344 6.84955 58.7344V44.8992Z" fill="#651FA6"/>
<path d="M6.84944 43.5423C7.73965 43.5423 8.46129 42.8133 8.46129 41.9143C8.46129 41.0152 7.73965 40.2862 6.84944 40.2862C5.95923 40.2862 5.23755 41.0152 5.23755 41.9143C5.23755 42.8133 5.95923 43.5423 6.84944 43.5423Z" fill="#651FA6"/>
<path fill-rule="evenodd" clip-rule="evenodd" d="M7.38678 40.2862V33.5041H11.4159V28.0789L7.38678 40.2862Z" fill="#A758F0"/>
<path d="M17.0513 35.3561C16.7586 31.6218 15.5024 28.6761 14.2452 28.7765C12.9881 28.877 12.2063 31.9857 12.4989 35.72C12.7916 39.4543 14.0479 42.4 15.305 42.2996C16.5621 42.1993 17.3439 39.0904 17.0513 35.3561Z" fill="#A758F0"/>
<path d="M14.9018 35.4659C14.7265 33.2255 14.1647 31.4427 13.6471 31.4841C13.1295 31.5254 12.852 33.3751 13.0274 35.6156C13.2027 37.856 13.7644 39.6387 14.2821 39.5974C14.7997 39.5561 15.0772 37.7064 14.9018 35.4659Z" fill="#651FA6"/>
<path d="M19.7432 36.3538C20.04 36.3538 20.2805 36.1108 20.2805 35.8111C20.2805 35.5114 20.04 35.2685 19.7432 35.2685C19.4465 35.2685 19.2059 35.5114 19.2059 35.8111C19.2059 36.1108 19.4465 36.3538 19.7432 36.3538Z" fill="#16D8D8"/>
<path d="M21.8923 35.6745C22.1891 35.6745 22.4296 35.4316 22.4296 35.1319C22.4296 34.8322 22.1891 34.5893 21.8923 34.5893C21.5956 34.5893 21.355 34.8322 21.355 35.1319C21.355 35.4316 21.5956 35.6745 21.8923 35.6745Z" fill="#16D8D8"/>
<path d="M24.0413 35.1318C24.338 35.1318 24.5786 34.8889 24.5786 34.5892C24.5786 34.2895 24.338 34.0466 24.0413 34.0466C23.7446 34.0466 23.504 34.2895 23.504 34.5892C23.504 34.8889 23.7446 35.1318 24.0413 35.1318Z" fill="#16D8D8"/>
<path fill-rule="evenodd" clip-rule="evenodd" d="M10.0733 53.1727C10.0733 53.58 9.80526 53.8508 9.402 53.8508H4.02911C3.62585 53.8508 3.35779 53.58 3.35779 53.1727C3.35779 52.7666 3.62585 52.4951 4.02911 52.4951H9.402C9.80526 52.4951 10.0733 52.7666 10.0733 53.1727Z" fill="#00FFF2"/>
<path d="M75.0793 58.599C78.8619 58.599 81.9286 55.5018 81.9286 51.6816C81.9286 47.861 78.8619 44.7638 75.0793 44.7638C71.2962 44.7638 68.2295 47.861 68.2295 51.6816C68.2295 55.5018 71.2962 58.599 75.0793 58.599Z" fill="#A758F0"/>
<path fill-rule="evenodd" clip-rule="evenodd" d="M75.0793 44.8992C71.3179 44.8992 68.2295 48.0187 68.2295 51.817C68.2295 55.6153 71.3179 58.7344 75.0793 58.7344V44.8992Z" fill="#651FA6"/>
<path d="M75.0793 43.5419C75.9695 43.5419 76.6913 42.8133 76.6913 41.9143C76.6913 41.0152 75.9695 40.2862 75.0793 40.2862C74.1891 40.2862 73.4673 41.0152 73.4673 41.9143C73.4673 42.8133 74.1891 43.5419 75.0793 43.5419Z" fill="#651FA6"/>
<path fill-rule="evenodd" clip-rule="evenodd" d="M74.5419 40.2862V33.5041H70.5129V28.0789L74.5419 40.2862Z" fill="#16D8D8"/>
<path d="M64.9511 35.3961C64.6586 39.1304 65.4404 42.2391 66.6976 42.3395C67.9544 42.4402 69.2108 39.4943 69.5037 35.76C69.7962 32.0257 69.0144 28.917 67.7572 28.8165C66.5 28.716 65.2436 31.6618 64.9511 35.3961Z" fill="#A758F0"/>
<path d="M66.996 35.569C66.8209 37.8095 67.0981 39.6592 67.6157 39.7005C68.1333 39.7419 68.6951 37.9592 68.8705 35.7187C69.046 33.4782 68.7684 31.6285 68.2508 31.5872C67.7332 31.5459 67.1714 33.3286 66.996 35.569Z" fill="#651FA6"/>
<path d="M62.1856 36.3538C62.4824 36.3538 62.7229 36.1108 62.7229 35.8111C62.7229 35.5114 62.4824 35.2685 62.1856 35.2685C61.8891 35.2685 61.6482 35.5114 61.6482 35.8111C61.6482 36.1108 61.8891 36.3538 62.1856 36.3538Z" fill="#16D8D8"/>
<path d="M60.0366 35.6745C60.3335 35.6745 60.5739 35.4316 60.5739 35.1319C60.5739 34.8322 60.3335 34.5893 60.0366 34.5893C59.7401 34.5893 59.4993 34.8322 59.4993 35.1319C59.4993 35.4316 59.7401 35.6745 60.0366 35.6745Z" fill="#16D8D8"/>
<path d="M57.8877 35.1319C58.1841 35.1319 58.425 34.8889 58.425 34.5892C58.425 34.2895 58.1841 34.0466 57.8877 34.0466C57.5908 34.0466 57.3503 34.2895 57.3503 34.5892C57.3503 34.8889 57.5908 35.1319 57.8877 35.1319Z" fill="#16D8D8"/>
<path fill-rule="evenodd" clip-rule="evenodd" d="M78.5714 53.1727C78.5714 52.7666 78.3033 52.4951 77.9 52.4951H72.527C72.1249 52.4951 71.8557 52.7666 71.8557 53.1727C71.8557 53.58 72.1249 53.8508 72.527 53.8508H77.9C78.3033 53.8508 78.5714 53.58 78.5714 53.1727Z" fill="#00FFF2"/>
</g>
<defs>
<clipPath id="clip0_6_10">
<rect width="82" height="86" fill="white"/>
</clipPath>
</defs>
</svg>
