<svg width="167" height="61" viewBox="0 0 167 61" fill="none" xmlns="http://www.w3.org/2000/svg">
<path d="M4.52032 14H49.6907H50.3857V14.695V47.3034V47.9984H49.6907H4.52032H3.82532V47.3034V14.695V14H4.52032ZM49.0009 15.39H5.21532V46.6083H49.0009V15.39Z" fill="#009846"/>
<path fill-rule="evenodd" clip-rule="evenodd" d="M20.6467 18.2579H46.1286V26.7536H20.6467V18.2579Z" fill="#77BBDC"/>
<path fill-rule="evenodd" clip-rule="evenodd" d="M29.1429 18.2579H37.6335V43.7399H29.1429V18.2579Z" fill="#77BBDC"/>
<path fill-rule="evenodd" clip-rule="evenodd" d="M8.08337 18.2579H16.5791V43.7399H8.08337V18.2579Z" fill="#0E5C31"/>
<path fill-rule="evenodd" clip-rule="evenodd" d="M8.08337 18.2579H16.5791L8.08337 26.7536V18.2579Z" fill="#009846"/>
<path fill-rule="evenodd" clip-rule="evenodd" d="M16.5791 26.7539H8.08337L16.5791 35.2496V26.7539Z" fill="#009846"/>
<path fill-rule="evenodd" clip-rule="evenodd" d="M8.08337 35.2499H16.5791L8.08337 43.7404V35.2499Z" fill="#009846"/>
<path fill-rule="evenodd" clip-rule="evenodd" d="M20.6467 26.7536H29.1424L20.6467 18.2579V26.7536Z" fill="#393185"/>
<path fill-rule="evenodd" clip-rule="evenodd" d="M29.1429 18.2579H37.6386L29.1429 26.7536V18.2579Z" fill="#393185"/>
<path fill-rule="evenodd" clip-rule="evenodd" d="M37.6379 26.7536H46.1285L37.6379 18.2579V26.7536Z" fill="#393185"/>
<path fill-rule="evenodd" clip-rule="evenodd" d="M29.1429 26.7539H37.6386L29.1429 35.2444V26.7539Z" fill="#393185"/>
<path fill-rule="evenodd" clip-rule="evenodd" d="M37.6386 35.2499H29.1429L37.6386 43.7404V35.2499Z" fill="#393185"/>
<path fill-rule="evenodd" clip-rule="evenodd" d="M46.13 18.2579H41.8873L46.13 22.5058V18.2579Z" fill="#393185"/>
<path fill-rule="evenodd" clip-rule="evenodd" d="M16.5793 43.7406H12.3314L16.5793 39.4928V43.7406Z" fill="#009846"/>
<path fill-rule="evenodd" clip-rule="evenodd" d="M29.1429 43.7406H33.3908L29.1429 39.4928V43.7406Z" fill="#393185"/>
<path d="M63.4796 37.0291C63.6841 37.0291 63.8329 36.9745 63.9306 36.8651C64.0282 36.7618 64.0794 36.61 64.0794 36.4095C64.0794 36.2576 64.0236 36.13 63.912 36.0207C63.805 35.9174 63.6469 35.8688 63.4424 35.8688C63.2796 35.8688 63.1494 35.9113 63.0471 36.0085C62.9448 36.0997 62.8937 36.2272 62.8937 36.3912H62.0567L62.0521 36.367C62.0428 35.9599 62.173 35.6318 62.4427 35.3767C62.7124 35.1215 63.0471 35 63.4424 35C63.9027 35 64.2653 35.1154 64.535 35.3584C64.8047 35.5954 64.9396 35.9416 64.9396 36.3852C64.9396 36.61 64.8838 36.8165 64.7768 36.9988C64.6652 37.181 64.5164 37.3269 64.3258 37.4302C64.5443 37.5273 64.7071 37.6731 64.8233 37.8615C64.9396 38.0559 65 38.2868 65 38.5663C65 39.0158 64.8559 39.3682 64.5676 39.6172C64.2793 39.8724 63.9027 40 63.4424 40C63.0471 40 62.7031 39.8785 62.4148 39.6416C62.1265 39.4046 61.987 39.0584 62.001 38.6027L62.0056 38.5783H62.8425C62.8425 38.7364 62.8983 38.87 63.0099 38.9733C63.1215 39.0765 63.2657 39.1312 63.4424 39.1312C63.6562 39.1312 63.8236 39.0765 63.9492 38.9672C64.0747 38.8578 64.1352 38.7181 64.1352 38.5419C64.1352 38.3049 64.0794 38.1349 63.9724 38.0255C63.8608 37.9223 63.6981 37.8676 63.4796 37.8676H62.9588V37.0291H63.4796Z" fill="#77BBDC"/>
<path d="M68.0231 39.9221C67.9857 39.8379 67.9537 39.7471 67.9271 39.6434C67.9003 39.5462 67.879 39.4359 67.8629 39.3257C67.7775 39.5332 67.6761 39.6953 67.548 39.8184C67.4199 39.9351 67.2545 40 67.0516 40C66.7206 40 66.4644 39.8963 66.2776 39.6888C66.0907 39.4813 66 39.196 66 38.8394C66 38.457 66.1174 38.1589 66.3523 37.9514C66.5925 37.7439 66.9502 37.6401 67.4306 37.6401H67.8416V37.3679C67.8416 37.2058 67.8043 37.0762 67.7402 36.9854C67.6761 36.9011 67.58 36.8557 67.4466 36.8557C67.3292 36.8557 67.2438 36.8882 67.1904 36.9529C67.1317 37.0178 67.1049 37.1216 67.1049 37.2577H66.1441L66.1388 37.2318C66.1228 36.8817 66.2455 36.59 66.5018 36.3501C66.7527 36.1167 67.0943 36 67.5107 36C67.9057 36 68.2206 36.1167 68.4662 36.3566C68.7064 36.59 68.8292 36.9336 68.8292 37.3744V38.8266C68.8292 39.0339 68.8452 39.222 68.8719 39.397C68.9039 39.572 68.9466 39.7471 69 39.9221H68.0231ZM67.3239 39.1377C67.4413 39.1377 67.5534 39.1053 67.6441 39.0339C67.7349 38.9692 67.8043 38.8849 67.8416 38.7941V38.282H67.4413C67.2811 38.282 67.1691 38.3274 67.0996 38.4181C67.0249 38.5153 66.9929 38.6321 66.9929 38.7747C66.9929 38.8849 67.0195 38.9692 67.0836 39.0404C67.1477 39.1053 67.2224 39.1377 67.3239 39.1377Z" fill="#77BBDC"/>
<path d="M72 40H70.9606V36.963H70.0393V40H69V36H72V40Z" fill="#77BBDC"/>
<path d="M75.0195 39.9221C74.9822 39.8379 74.9502 39.7471 74.9236 39.6434C74.8969 39.5462 74.881 39.4359 74.865 39.3257C74.7797 39.5332 74.6732 39.6953 74.5453 39.8184C74.4227 39.9351 74.2575 40 74.055 40C73.7194 40 73.4635 39.8963 73.2771 39.6888C73.0959 39.4813 73 39.196 73 38.8394C73 38.457 73.1172 38.1589 73.357 37.9514C73.5915 37.7439 73.9485 37.6401 74.428 37.6401H74.8384V37.3679C74.8384 37.2058 74.8063 37.0762 74.7424 36.9854C74.6785 36.9011 74.5772 36.8557 74.4441 36.8557C74.3321 36.8557 74.2469 36.8882 74.1882 36.9529C74.1349 37.0178 74.1083 37.1216 74.1083 37.2577H73.1438L73.1385 37.2318C73.1279 36.8817 73.2451 36.59 73.5008 36.3501C73.7567 36.1167 74.0923 36 74.508 36C74.9023 36 75.222 36.1167 75.4618 36.3566C75.7069 36.59 75.8295 36.9336 75.8295 37.3744V38.8266C75.8295 39.0339 75.8401 39.222 75.8721 39.397C75.8987 39.572 75.9413 39.7471 76 39.9221H75.0195ZM74.3215 39.1377C74.4441 39.1377 74.5506 39.1053 74.6464 39.0339C74.7371 38.9692 74.8011 38.8849 74.8384 38.7941V38.282H74.4387C74.2842 38.282 74.167 38.3274 74.0976 38.4181C74.0284 38.5153 73.9911 38.6321 73.9911 38.7747C73.9911 38.8849 74.023 38.9692 74.0817 39.0404C74.1456 39.1053 74.2255 39.1377 74.3215 39.1377Z" fill="#77BBDC"/>
<path d="M76.2814 38.8508H76.3896C76.5988 38.8508 76.7503 38.7623 76.8298 38.579C76.9163 38.3957 76.9668 38.0733 76.9812 37.5992L77.0678 36H80.4012V38.8508H81V41H79.6651V39.7547H77.3419V41H76V38.8508H76.2814ZM78.3232 37.5992C78.3087 37.8583 78.2799 38.0923 78.2367 38.2945C78.1934 38.5032 78.1357 38.6928 78.0635 38.8508H79.0663V36.9039H78.3521L78.3232 37.5992Z" fill="#77BBDC"/>
<path d="M84 40H82.9531V38.5186H82.0413V40H81V36H82.0413V37.5623H82.9531V36H84V40Z" fill="#77BBDC"/>
<path d="M85 37.9644C85 37.3809 85.1301 36.9076 85.3958 36.5446C85.6562 36.1815 86.026 36 86.5 36C86.9687 36 87.3385 36.1815 87.6042 36.5446C87.8645 36.9076 88 37.3809 88 37.9644V38.0356C88 38.6191 87.8645 39.0923 87.6042 39.4554C87.3385 39.8184 86.9739 40 86.5052 40C86.026 40 85.6562 39.8184 85.3958 39.4554C85.1301 39.0923 85 38.6191 85 38.0356V37.9644ZM85.9687 38.0356C85.9687 38.3597 86.0104 38.6126 86.0885 38.7941C86.1719 38.9822 86.3072 39.0729 86.5052 39.0729C86.6927 39.0729 86.8281 38.9822 86.9115 38.7941C86.9896 38.6126 87.0313 38.3597 87.0313 38.0356V37.9644C87.0313 37.6466 86.9896 37.3938 86.9115 37.2058C86.8281 37.0178 86.6927 36.9271 86.5 36.9271C86.3072 36.9271 86.1719 37.0178 86.0885 37.2123C86.0104 37.4003 85.9687 37.6531 85.9687 37.9644V38.0356Z" fill="#77BBDC"/>
<path d="M90 38H88V37H90V38Z" fill="#77BBDC"/>
<path d="M92.4363 37.9938H92.1272V40H91V35H92.1272V36.9562H92.3576L93.4545 35H94.8726L93.3454 37.275L95 40H93.5575L92.4363 37.9938Z" fill="#77BBDC"/>
<path d="M97.0178 39.9221C96.9804 39.8379 96.9484 39.7471 96.9217 39.6434C96.8951 39.5462 96.879 39.4359 96.8629 39.3257C96.7776 39.5332 96.6708 39.6953 96.5427 39.8184C96.4199 39.9351 96.2545 40 96.0516 40C95.7153 40 95.4591 39.8963 95.2776 39.6888C95.0908 39.4813 95 39.196 95 38.8394C95 38.457 95.1174 38.1589 95.3523 37.9514C95.5925 37.7439 95.9502 37.6401 96.4306 37.6401H96.8363V37.3679C96.8363 37.2058 96.8043 37.0762 96.7402 36.9854C96.6761 36.9011 96.5748 36.8557 96.4466 36.8557C96.3292 36.8557 96.2438 36.8882 96.1904 36.9529C96.1317 37.0178 96.1049 37.1216 96.1049 37.2577H95.1388L95.1335 37.2318C95.1228 36.8817 95.2402 36.59 95.4965 36.3501C95.7527 36.1167 96.089 36 96.5107 36C96.9003 36 97.2206 36.1167 97.4662 36.3566C97.7064 36.59 97.8292 36.9336 97.8292 37.3744V38.8266C97.8292 39.0339 97.8452 39.222 97.8719 39.397C97.8985 39.572 97.9412 39.7471 98 39.9221H97.0178ZM96.3185 39.1377C96.4413 39.1377 96.548 39.1053 96.6441 39.0339C96.7349 38.9692 96.7989 38.8849 96.8363 38.7941V38.282H96.4359C96.2811 38.282 96.1637 38.3274 96.0943 38.4181C96.0249 38.5153 95.9875 38.6321 95.9875 38.7747C95.9875 38.8849 96.0196 38.9692 96.0836 39.0404C96.1423 39.1053 96.2224 39.1377 96.3185 39.1377Z" fill="#77BBDC"/>
<path d="M100.468 37.6039C100.611 37.6039 100.72 37.5715 100.803 37.5065C100.88 37.435 100.924 37.3506 100.924 37.2338C100.924 37.1299 100.891 37.0455 100.819 36.9675C100.753 36.8962 100.643 36.8571 100.495 36.8571C100.352 36.8571 100.243 36.8831 100.166 36.9416C100.083 36.9999 100.045 37.0779 100.045 37.1884H99.0563L99.0508 37.1688C99.0398 36.8182 99.1661 36.5325 99.4297 36.3246C99.6934 36.1104 100.023 36 100.429 36C100.885 36 101.253 36.0974 101.528 36.2987C101.802 36.4935 101.945 36.7662 101.945 37.1234C101.945 37.2987 101.89 37.4545 101.797 37.5974C101.698 37.7402 101.561 37.8572 101.39 37.9415C101.588 38.0194 101.736 38.1363 101.841 38.2922C101.945 38.4416 102 38.6233 102 38.8377C102 39.1947 101.852 39.4804 101.555 39.6883C101.264 39.8961 100.885 40 100.429 40C100.028 40 99.6879 39.9026 99.4077 39.6948C99.1221 39.4935 98.9849 39.1947 99.0013 38.8116L99.0068 38.7857H99.9899C99.9899 38.896 100.034 38.9805 100.116 39.0454C100.199 39.1169 100.33 39.1428 100.501 39.1428C100.66 39.1428 100.781 39.1039 100.863 39.026C100.946 38.9415 100.984 38.8441 100.984 38.7338C100.984 38.5844 100.94 38.4805 100.847 38.409C100.759 38.3377 100.627 38.3052 100.468 38.3052H99.9899V37.6039H100.468Z" fill="#77BBDC"/>
<path d="M104.69 39.9221C104.641 39.8379 104.605 39.7471 104.562 39.6434C104.527 39.5462 104.505 39.4359 104.484 39.3257C104.37 39.5332 104.228 39.6953 104.057 39.8184C103.893 39.9351 103.673 40 103.402 40C102.961 40 102.612 39.8963 102.37 39.6888C102.121 39.4813 102 39.196 102 38.8394C102 38.457 102.157 38.1589 102.47 37.9514C102.79 37.7439 103.267 37.6401 103.907 37.6401H104.448V37.3679C104.448 37.2058 104.406 37.0762 104.32 36.9854C104.235 36.9011 104.1 36.8557 103.929 36.8557C103.772 36.8557 103.658 36.8882 103.587 36.9529C103.509 37.0178 103.473 37.1216 103.473 37.2577H102.192L102.178 37.2318C102.164 36.8817 102.32 36.59 102.662 36.3501C103.004 36.1167 103.452 36 104.014 36C104.534 36 104.961 36.1167 105.288 36.3566C105.609 36.59 105.772 36.9336 105.772 37.3744V38.8266C105.772 39.0339 105.794 39.222 105.829 39.397C105.865 39.572 105.922 39.7471 106 39.9221H104.69ZM103.758 39.1377C103.922 39.1377 104.064 39.1053 104.192 39.0339C104.313 38.9692 104.399 38.8849 104.448 38.7941V38.282H103.915C103.708 38.282 103.552 38.3274 103.459 38.4181C103.367 38.5153 103.317 38.6321 103.317 38.7747C103.317 38.8849 103.359 38.9692 103.445 39.0404C103.523 39.1053 103.63 39.1377 103.758 39.1377Z" fill="#77BBDC"/>
<path d="M107.479 37.1784H107.495L107.889 36H108.969L108.071 37.9797L109 40H107.92L107.505 38.7812H107.49L107.08 40H106L106.924 37.9797L106.026 36H107.1L107.479 37.1784Z" fill="#77BBDC"/>
<path d="M110.605 39.0729C110.747 39.0729 110.854 39.0276 110.922 38.9367C110.996 38.8524 111.03 38.7228 111.03 38.5542H111.988L112 38.5737C112.005 38.9951 111.875 39.3387 111.614 39.6045C111.353 39.8703 111.013 40 110.605 40C110.089 40 109.697 39.8184 109.42 39.4554C109.142 39.0923 109 38.6256 109 38.0421V37.9579C109 37.3744 109.142 36.9076 109.414 36.5446C109.692 36.1815 110.089 36 110.599 36C111.024 36 111.37 36.1361 111.626 36.4085C111.881 36.6807 112.005 37.0502 112 37.5235L111.988 37.5429H111.03C111.03 37.3614 110.996 37.2123 110.922 37.0956C110.849 36.9854 110.741 36.9271 110.599 36.9271C110.395 36.9271 110.253 37.0178 110.174 37.2058C110.094 37.3938 110.055 37.6401 110.055 37.9579V38.0421C110.055 38.3597 110.094 38.6191 110.174 38.8006C110.253 38.9822 110.395 39.0729 110.605 39.0729Z" fill="#77BBDC"/>
<path d="M116 36.9495H114.995V40H113.995V36.9495H113V36H116V36.9495Z" fill="#77BBDC"/>
<path d="M118.023 39.9221C117.986 39.8379 117.954 39.7471 117.927 39.6434C117.9 39.5462 117.879 39.4359 117.863 39.3257C117.778 39.5332 117.671 39.6953 117.548 39.8184C117.42 39.9351 117.254 40 117.052 40C116.721 40 116.459 39.8963 116.278 39.6888C116.091 39.4813 116 39.196 116 38.8394C116 38.457 116.117 38.1589 116.352 37.9514C116.593 37.7439 116.95 37.6401 117.431 37.6401H117.842V37.3679C117.842 37.2058 117.804 37.0762 117.74 36.9854C117.676 36.9011 117.58 36.8557 117.447 36.8557C117.329 36.8557 117.244 36.8882 117.19 36.9529C117.132 37.0178 117.105 37.1216 117.105 37.2577H116.144L116.139 37.2318C116.123 36.8817 116.246 36.59 116.502 36.3501C116.753 36.1167 117.094 36 117.511 36C117.906 36 118.221 36.1167 118.466 36.3566C118.706 36.59 118.829 36.9336 118.829 37.3744V38.8266C118.829 39.0339 118.845 39.222 118.872 39.397C118.904 39.572 118.941 39.7471 119 39.9221H118.023ZM117.324 39.1377C117.441 39.1377 117.553 39.1053 117.644 39.0339C117.735 38.9692 117.804 38.8849 117.842 38.7941V38.282H117.441C117.281 38.282 117.169 38.3274 117.094 38.4181C117.025 38.5153 116.993 38.6321 116.993 38.7747C116.993 38.8849 117.02 38.9692 117.084 39.0404C117.148 39.1053 117.222 39.1377 117.324 39.1377Z" fill="#77BBDC"/>
<path d="M123 40H121.953V38.5186H121.041V40H120V36H121.041V37.5623H121.953V36H123V40Z" fill="#77BBDC"/>
<path d="M124.605 39.0729C124.747 39.0729 124.854 39.0276 124.922 38.9367C124.996 38.8524 125.03 38.7228 125.03 38.5542H125.988L126 38.5737C126.005 38.9951 125.881 39.3387 125.614 39.6045C125.353 39.8703 125.013 40 124.605 40C124.089 40 123.697 39.8184 123.42 39.4554C123.142 39.0923 123 38.6256 123 38.0421V37.9579C123 37.3744 123.142 36.9076 123.42 36.5446C123.692 36.1815 124.089 36 124.599 36C125.024 36 125.37 36.1361 125.626 36.4085C125.881 36.6807 126.005 37.0502 126 37.5235L125.988 37.5429H125.03C125.03 37.3614 124.996 37.2123 124.922 37.0956C124.849 36.9854 124.741 36.9271 124.599 36.9271C124.395 36.9271 124.253 37.0178 124.174 37.2058C124.094 37.3938 124.055 37.6401 124.055 37.9579V38.0421C124.055 38.3597 124.094 38.6191 124.174 38.8006C124.253 38.9822 124.395 39.0729 124.605 39.0729Z" fill="#77BBDC"/>
<path d="M128.262 38.6061H127.945V40H127V36H127.945V37.4411H128.196L128.697 36H129.913L129.003 37.8654L129.019 37.8787L129.07 37.8519L130 40H128.717L128.262 38.6061Z" fill="#77BBDC"/>
<path d="M132.697 39.9221C132.648 39.8379 132.605 39.7471 132.569 39.6434C132.534 39.5462 132.505 39.4359 132.491 39.3257C132.377 39.5332 132.235 39.6953 132.064 39.8184C131.893 39.9351 131.68 40 131.409 40C130.961 40 130.619 39.8963 130.37 39.6888C130.128 39.4813 130 39.196 130 38.8394C130 38.457 130.157 38.1589 130.477 37.9514C130.79 37.7439 131.267 37.6401 131.907 37.6401H132.456V37.3679C132.456 37.2058 132.413 37.0762 132.327 36.9854C132.242 36.9011 132.107 36.8557 131.929 36.8557C131.772 36.8557 131.658 36.8882 131.587 36.9529C131.516 37.0178 131.473 37.1216 131.473 37.2577H130.192L130.185 37.2318C130.164 36.8817 130.327 36.59 130.669 36.3501C131.011 36.1167 131.459 36 132.014 36C132.541 36 132.961 36.1167 133.288 36.3566C133.616 36.59 133.779 36.9336 133.779 37.3744V38.8266C133.779 39.0339 133.793 39.222 133.829 39.397C133.872 39.572 133.929 39.7471 134 39.9221H132.697ZM131.765 39.1377C131.929 39.1377 132.071 39.1053 132.192 39.0339C132.32 38.9692 132.406 38.8849 132.456 38.7941V38.282H131.922C131.708 38.282 131.559 38.3274 131.466 38.4181C131.374 38.5153 131.324 38.6321 131.324 38.7747C131.324 38.8849 131.366 38.9692 131.445 39.0404C131.53 39.1053 131.637 39.1377 131.765 39.1377Z" fill="#77BBDC"/>
<path d="M137 36V40H135.984V38.6802H135.593L135.016 40H134L134.67 38.4647C134.478 38.3569 134.324 38.202 134.22 38.0135C134.115 37.825 134.06 37.6094 134.06 37.3804C134.06 36.9764 134.198 36.6397 134.462 36.3838C134.731 36.1279 135.088 36 135.533 36H137ZM135.082 37.4209C135.082 37.5421 135.121 37.6498 135.198 37.7373C135.28 37.8316 135.396 37.8721 135.538 37.8721H135.984V36.9495H135.533C135.39 36.9495 135.28 37.0034 135.198 37.0976C135.121 37.1919 135.082 37.2997 135.082 37.4209Z" fill="#77BBDC"/>
<path d="M139 38.1933C139 37.6755 139.152 37.2555 139.446 36.9332C139.745 36.6111 140.156 36.45 140.69 36.45C141.224 36.45 141.634 36.6111 141.934 36.9332C142.227 37.2555 142.379 37.6755 142.379 38.1933V38.2567C142.379 38.7745 142.227 39.1945 141.934 39.5167C141.634 39.8389 141.224 40 140.696 40C140.162 40 139.745 39.8389 139.446 39.5167C139.152 39.1945 139 38.7745 139 38.2567V38.1933ZM140.091 38.2567C140.091 38.5443 140.138 38.7687 140.226 38.9298C140.32 39.0967 140.473 39.1772 140.696 39.1772C140.907 39.1772 141.059 39.0967 141.153 38.9298C141.247 38.7687 141.288 38.5443 141.288 38.2567V38.1933C141.288 37.9115 141.247 37.687 141.153 37.5202C141.059 37.3533 140.907 37.2728 140.69 37.2728C140.473 37.2728 140.32 37.3533 140.226 37.526C140.138 37.6928 140.091 37.9172 140.091 38.1933V38.2567ZM144.451 36.45C144.961 36.45 145.366 36.6111 145.653 36.9332C145.941 37.2555 146.082 37.6755 146.082 38.1933V38.2567C146.082 38.7745 145.935 39.1945 145.636 39.5167C145.342 39.8389 144.926 40 144.398 40C143.864 40 143.447 39.8389 143.154 39.5167C142.855 39.1945 142.708 38.7745 142.708 38.2567V37.4052C142.708 36.6744 142.837 36.1508 143.101 35.8401C143.359 35.5294 143.776 35.3683 144.363 35.3625C144.638 35.3568 144.838 35.328 144.955 35.2705C145.078 35.2187 145.137 35.1266 145.137 35H145.982L145.988 35.0173C145.999 35.4604 145.882 35.7653 145.636 35.9322C145.389 36.1048 144.996 36.1911 144.451 36.1969C144.14 36.2025 143.911 36.2601 143.752 36.3695C143.6 36.4787 143.535 36.6226 143.553 36.7952L143.565 36.8124C143.659 36.7089 143.788 36.6226 143.94 36.5535C144.099 36.4845 144.269 36.45 144.451 36.45ZM144.392 37.2728C144.175 37.2728 144.022 37.3533 143.934 37.526C143.84 37.6928 143.794 37.9172 143.794 38.1933V38.2567C143.794 38.5443 143.84 38.7687 143.934 38.9298C144.022 39.0967 144.181 39.1772 144.398 39.1772C144.615 39.1772 144.767 39.0967 144.855 38.9298C144.949 38.7687 144.996 38.5443 144.996 38.2567V38.1933C144.996 37.9115 144.949 37.687 144.855 37.5202C144.767 37.3533 144.609 37.2728 144.392 37.2728ZM149.702 36.5132V39.931H148.616V37.336H147.942V37.9689C147.942 38.6422 147.83 39.1427 147.607 39.4592C147.378 39.7756 146.997 39.931 146.451 39.931H146.316L146.299 39.1082H146.381C146.592 39.1082 146.721 39.0334 146.774 38.8838C146.827 38.7342 146.856 38.4293 146.856 37.9689V36.5132H149.702ZM152.33 39.931C152.289 39.8562 152.254 39.7756 152.225 39.6836C152.195 39.5973 152.172 39.4995 152.16 39.4016C152.066 39.5858 151.949 39.7297 151.808 39.8389C151.667 39.9425 151.491 40 151.268 40C150.899 40 150.617 39.9079 150.412 39.7239C150.212 39.5397 150.107 39.2866 150.107 38.9701C150.107 38.6306 150.236 38.366 150.5 38.1818C150.758 37.9978 151.151 37.9057 151.679 37.9057H152.131V37.6641C152.131 37.5202 152.095 37.4052 152.025 37.3245C151.955 37.2497 151.843 37.2095 151.697 37.2095C151.573 37.2095 151.474 37.2382 151.415 37.2958C151.356 37.3533 151.321 37.4454 151.321 37.5662H150.265L150.259 37.5432C150.242 37.2325 150.376 36.9736 150.658 36.7607C150.94 36.5535 151.309 36.45 151.767 36.45C152.201 36.45 152.553 36.5535 152.817 36.7664C153.087 36.9736 153.222 37.2785 153.222 37.6697V38.9586C153.222 39.1427 153.234 39.3095 153.263 39.465C153.298 39.6203 153.345 39.7756 153.404 39.931H152.33ZM151.562 39.2348C151.697 39.2348 151.814 39.2061 151.914 39.1427C152.019 39.0852 152.09 39.0104 152.131 38.9298V38.4753H151.691C151.515 38.4753 151.391 38.5156 151.315 38.5961C151.239 38.6824 151.198 38.7859 151.198 38.9126C151.198 39.0104 151.233 39.0852 151.298 39.1485C151.368 39.2061 151.456 39.2348 151.562 39.2348ZM155.311 39.1772C155.457 39.1772 155.569 39.1369 155.639 39.0564C155.716 38.9816 155.751 38.8666 155.751 38.7169H156.742L156.748 38.7342C156.76 39.1082 156.625 39.4132 156.355 39.649C156.085 39.885 155.733 40 155.311 40C154.777 40 154.372 39.8389 154.084 39.5167C153.797 39.1945 153.65 38.7803 153.65 38.2624V38.1876C153.65 37.6697 153.797 37.2555 154.079 36.9332C154.366 36.6111 154.777 36.45 155.305 36.45C155.745 36.45 156.103 36.5708 156.367 36.8124C156.631 37.0542 156.76 37.3821 156.748 37.8021L156.742 37.8194H155.751C155.751 37.6583 155.716 37.526 155.639 37.4223C155.563 37.3245 155.452 37.2728 155.305 37.2728C155.094 37.2728 154.947 37.3533 154.865 37.5202C154.783 37.687 154.736 37.9057 154.736 38.1876V38.2624C154.736 38.5443 154.783 38.7745 154.865 38.9356C154.947 39.0967 155.094 39.1772 155.311 39.1772ZM160.28 37.3245H159.183V39.931H158.086V37.3245H157.006V36.5132H160.28V37.3245ZM161.841 37.5144H162.392C162.885 37.5144 163.278 37.6237 163.572 37.8481C163.859 38.0725 164 38.3602 164 38.7227C164 39.0909 163.859 39.3844 163.572 39.603C163.284 39.8216 162.891 39.931 162.392 39.931H160.75V36.5132H161.841V37.5144ZM161.841 38.3315V39.1197H162.392C162.568 39.1197 162.698 39.0795 162.786 39.0104C162.874 38.9356 162.92 38.8378 162.92 38.7169C162.92 38.6019 162.874 38.5098 162.786 38.4407C162.698 38.3659 162.568 38.3315 162.392 38.3315H161.841Z" fill="#77BBDC"/>
<path d="M64.0902 21.1715H62V29.5843H64.0902V21.1715Z" fill="#B8B3AF"/>
<path d="M71.9013 23.0387V21.1715H64.4585V23.0387H67.14V29.5843H69.2302V23.0387H71.9013Z" fill="#B8B3AF"/>
<path d="M81.3008 28.1371L81.8661 29.5842H84.0808L80.5176 21.1248H78.5311L74.9575 29.5842H77.1826L77.7376 28.1371H81.3008ZM80.6058 26.3529H78.4326L79.5166 23.5625L80.6058 26.3529Z" fill="#B8B3AF"/>
<path d="M87.9696 27.7997C86.6003 27.7997 85.646 26.7728 85.646 25.3776C85.646 23.9824 86.6003 22.9554 87.9696 22.9554C89.0847 22.9554 89.8264 23.6089 90.0598 24.6618H92.2019C91.9426 22.4834 90.2828 21 87.9852 21C85.4489 21 83.535 22.8413 83.535 25.3776C83.535 27.9138 85.4489 29.7551 87.9852 29.7551C90.2828 29.7551 91.9426 28.2717 92.2019 26.0933H90.0598C89.8264 27.1462 89.0847 27.7997 87.9696 27.7997Z" fill="#B8B3AF"/>
<path d="M97.1547 27.7997C95.7855 27.7997 94.8311 26.7728 94.8311 25.3776C94.8311 23.9824 95.7855 22.9554 97.1547 22.9554C98.2698 22.9554 99.0115 23.6089 99.2449 24.6618H101.382C101.122 22.4834 99.468 21 97.1703 21C94.634 21 92.715 22.8413 92.715 25.3776C92.715 27.9138 94.634 29.7551 97.1703 29.7551C99.468 29.7551 101.122 28.2717 101.382 26.0933H99.2449C99.0115 27.1462 98.2698 27.7997 97.1547 27.7997Z" fill="#B8B3AF"/>
<path d="M106.351 21C103.82 21 101.901 22.9295 101.901 25.3776C101.901 27.8256 103.82 29.7551 106.351 29.7551C108.898 29.7551 110.817 27.8256 110.817 25.3776C110.817 22.9295 108.898 21 106.351 21ZM106.351 27.8153C104.992 27.8153 104.017 26.7001 104.017 25.3776C104.017 24.055 104.992 22.9398 106.351 22.9398C107.71 22.9398 108.69 24.055 108.69 25.3776C108.69 26.7001 107.71 27.8153 106.351 27.8153Z" fill="#B8B3AF"/>
<path d="M119.259 29.5843H117.169V24.8437V21.1715H119.259V29.5843ZM113.606 29.5843H111.516V21.1715H113.606V29.5843Z" fill="#B8B3AF"/>
<path d="M121.32 21.1715H123.41V25.9069L127.466 21.1715H129.064V29.5843H126.973V24.9682L122.943 29.5843H121.32V21.1715Z" fill="#B8B3AF"/>
<path d="M135.712 28.1371L136.278 29.5842H138.492L134.934 21.1248H132.943L129.369 29.5842H131.594L132.149 28.1371H135.712ZM135.017 26.3529H132.844L133.933 23.5625L135.017 26.3529Z" fill="#B8B3AF"/>
<path d="M148.627 21.1715H150.717V25.9069L154.773 21.1715H156.365V29.5843H154.28V24.9682L150.245 29.5843H148.627V21.1715Z" fill="#B8B3AF"/>
<path d="M164.218 21.1715V29.5791H162.128V27.0324H161.003C158.705 27.0324 157.268 25.8862 157.268 24.0501C157.268 22.2815 158.643 21.1715 160.832 21.1715H164.218ZM162.128 25.3209V22.8935H160.878C159.95 22.8935 159.359 23.3447 159.359 24.0501C159.359 24.8229 159.95 25.3209 160.878 25.3209H162.128Z" fill="#B8B3AF"/>
<path d="M119.582 29.5838V27.7166H113.452V29.5838C118.405 29.5838 114.639 29.5838 119.582 29.5838Z" fill="#B8B3AF"/>
<path d="M118.556 31.3524H120.423V27.7166H118.556C118.556 30.6574 118.556 28.422 118.556 31.3524Z" fill="#B8B3AF"/>
<path d="M145.863 29.5843C143.514 29.5843 141.169 29.5843 138.825 29.5843V21.1715H140.915V27.7171H144.473V24.8437V21.1715H146.563V27.7171H147.73V31.3529H145.863V29.5843Z" fill="#B8B3AF"/>
<path d="M157.268 29.5839H159.608L161.708 25.9429H159.369C157.673 28.8837 158.964 26.6483 157.268 29.5839Z" fill="#B8B3AF"/>
</svg>
