<svg width="22" height="22" viewBox="0 0 22 22" fill="none" xmlns="http://www.w3.org/2000/svg">
<g clip-path="url(#clip0_9_182)">
<path d="M11.0037 5.35156C7.88424 5.35156 5.35883 7.87973 5.35883 10.9964C5.35883 14.1158 7.88699 16.6412 11.0037 16.6412C14.1231 16.6412 16.6485 14.1131 16.6485 10.9964C16.6485 7.87698 14.1203 5.35156 11.0037 5.35156ZM11.0037 14.6603C8.97874 14.6603 7.33974 13.0204 7.33974 10.9964C7.33974 8.9724 8.97966 7.33248 11.0037 7.33248C13.0277 7.33248 14.6676 8.9724 14.6676 10.9964C14.6685 13.0204 13.0286 14.6603 11.0037 14.6603Z" fill="#3BF5BD"/>
<path d="M15.5353 0.0708134C13.5113 -0.0236032 8.49802 -0.0190199 6.47218 0.0708134C4.69202 0.15423 3.12176 0.584147 1.85585 1.85006C-0.259819 3.96573 0.010598 6.81656 0.010598 10.9975C0.010598 15.2765 -0.227735 18.0613 1.85585 20.1449C3.97976 22.2679 6.87185 21.9901 11.0033 21.9901C15.2419 21.9901 16.7049 21.9929 18.2037 21.4126C20.2414 20.6216 21.7796 18.8001 21.9299 15.5286C22.0253 13.5036 22.0198 8.49131 21.9299 6.46548C21.7484 2.60356 19.6758 0.26148 15.5353 0.0708134ZM18.739 18.7451C17.3521 20.1321 15.428 20.0083 10.9767 20.0083C6.39335 20.0083 4.55543 20.0761 3.21435 18.7314C1.66976 17.1941 1.94935 14.7256 1.94935 10.9828C1.94935 5.91823 1.4296 2.27081 6.51252 2.01048C7.68035 1.96923 8.0241 1.95548 10.9638 1.95548L11.0051 1.98298C15.89 1.98298 19.7226 1.47148 19.9527 6.55348C20.0049 7.71306 20.0168 8.0614 20.0168 10.9966C20.0159 15.5267 20.1021 17.3756 18.739 18.7451Z" fill="#3BF5BD"/>
<path d="M16.8722 6.44773C17.6007 6.44773 18.1913 5.85716 18.1913 5.12865C18.1913 4.40014 17.6007 3.80957 16.8722 3.80957C16.1437 3.80957 15.5531 4.40014 15.5531 5.12865C15.5531 5.85716 16.1437 6.44773 16.8722 6.44773Z" fill="#3BF5BD"/>
</g>
<defs>
<clipPath id="clip0_9_182">
<rect width="22" height="22" fill="white"/>
</clipPath>
</defs>
</svg>
