<svg width="166" height="61" viewBox="0 0 166 61" fill="none" xmlns="http://www.w3.org/2000/svg">
<path d="M54.9557 30.6188C55.2109 30.6188 55.4604 30.6932 55.6725 30.8326C55.8847 30.9719 56.0501 31.17 56.1478 31.4017C56.2455 31.6335 56.271 31.8885 56.2212 32.1345C56.1714 32.3805 56.0485 32.6065 55.8681 32.7838C55.6876 32.9612 55.4577 33.082 55.2074 33.1309C54.9571 33.1799 54.6977 33.1548 54.4619 33.0588C54.2261 32.9628 54.0246 32.8002 53.8828 32.5917C53.741 32.3831 53.6653 32.1379 53.6653 31.8871C53.666 31.5509 53.8022 31.2287 54.044 30.991C54.2859 30.7534 54.6137 30.6195 54.9557 30.6188Z" fill="#BC1515"/>
<path d="M100.828 22C101.084 22 101.333 22.0744 101.545 22.2138C101.757 22.3531 101.923 22.5512 102.02 22.7829C102.118 23.0147 102.144 23.2697 102.094 23.5157C102.044 23.7617 101.921 23.9877 101.741 24.165C101.56 24.3424 101.33 24.4632 101.08 24.5121C100.83 24.5611 100.57 24.536 100.335 24.44C100.099 24.344 99.8972 24.1814 99.7555 23.9729C99.6137 23.7643 99.538 23.5191 99.538 23.2683C99.5359 23.1011 99.5678 22.9353 99.6319 22.7805C99.696 22.6257 99.791 22.485 99.9112 22.3668C100.031 22.2487 100.175 22.1553 100.332 22.0923C100.49 22.0293 100.658 21.998 100.828 22Z" fill="#BC1515"/>
<path d="M134.798 36.96C135.054 36.96 135.303 37.0344 135.515 37.1738C135.727 37.3131 135.893 37.5112 135.99 37.7429C136.088 37.9747 136.114 38.2297 136.064 38.4757C136.014 38.7217 135.891 38.9477 135.711 39.125C135.53 39.3024 135.3 39.4232 135.05 39.4721C134.8 39.5211 134.54 39.4959 134.305 39.4C134.069 39.304 133.867 39.1414 133.725 38.9329C133.584 38.7243 133.508 38.4791 133.508 38.2283C133.509 37.8921 133.645 37.5699 133.887 37.3322C134.129 37.0945 134.456 36.9607 134.798 36.96Z" fill="#BC1515"/>
<path d="M9.004 34.76L13.112 22.9835H14.297L18.4577 34.76L21.7757 22.9835H24.0667L19.0633 39.3929H17.7467L13.6123 27.3059L9.478 39.3929H8.10867L3 22.9835H5.47533L9.004 34.76ZM142.856 32.0164H141.513V22.9835H139.354V39.16H141.513V33.7247H142.856L147.28 39.1859H150.019L144.779 32.5859L149.387 27.047H146.859L142.856 32.0164ZM35.39 38.1764C34.7652 38.6072 34.0707 38.931 33.336 39.1341C32.4712 39.3774 31.5758 39.4994 30.6763 39.4964C29.7611 39.5133 28.8505 39.3641 27.9903 39.0564C27.2618 38.7949 26.6167 38.3484 26.1207 37.7623C25.6228 37.1699 25.2552 36.4825 25.041 35.7435C24.7974 34.8845 24.682 33.9952 24.6987 33.1035C24.6987 31.0329 25.2253 29.4282 26.2523 28.3412C27.2793 27.2541 28.7803 26.6847 30.7027 26.6847C31.3228 26.6896 31.9407 26.759 32.546 26.8917C33.1469 27.0234 33.7125 27.2792 34.205 27.6423C34.7217 28.0373 35.1291 28.5535 35.39 29.1435C35.7161 29.9314 35.8687 30.7782 35.8377 31.6282C35.8377 31.887 35.8113 32.1717 35.8113 32.4823C35.8023 32.8038 35.7671 33.124 35.706 33.44H26.9107C26.937 34.8635 27.2793 35.9247 27.9377 36.6494C28.596 37.3741 29.7283 37.7364 31.3083 37.7364C31.9467 37.7322 32.5795 37.6184 33.178 37.4C33.6922 37.2249 34.1663 36.9523 34.5737 36.5976L35.39 38.1764ZM33.7837 31.8612C33.81 30.6188 33.5467 29.7647 33.02 29.247C32.4933 28.7294 31.7297 28.4964 30.7553 28.4964C29.6493 28.4964 28.7803 28.7553 28.1483 29.247C27.5163 29.7388 27.1213 30.6188 27.016 31.8612H33.7837ZM38.945 22.9835H41.1043V28.5223H41.3413C41.689 27.9075 42.2359 27.4247 42.895 27.1506C43.5676 26.8613 44.2938 26.7115 45.028 26.7106C46.7397 26.7106 48.03 27.2282 48.9253 28.2376C49.8207 29.247 50.242 30.8 50.242 32.8706C50.242 34.9929 49.6627 36.5976 48.504 37.7106C47.3453 38.8235 45.7127 39.367 43.606 39.367C42.6601 39.3794 41.7155 39.2926 40.7883 39.1082C40.1358 39.0132 39.5039 38.812 38.9187 38.5129V22.9835H38.945ZM44.7383 28.5223C44.288 28.5125 43.8402 28.5917 43.4217 28.7553C43.041 28.9055 42.6925 29.1251 42.3947 29.4023C42.092 29.6717 41.8343 29.9861 41.631 30.3341C41.4221 30.6763 41.2543 31.0411 41.1307 31.4212V37.167C42.0269 37.4764 42.9723 37.6254 43.922 37.607C45.1597 37.607 46.134 37.2447 46.8713 36.4941C47.6087 35.7435 47.9773 34.5529 47.9773 32.8964C47.9723 32.314 47.9105 31.7333 47.793 31.1623C47.6809 30.676 47.4849 30.212 47.2137 29.7906C46.9614 29.412 46.6176 29.1007 46.213 28.8847C45.7662 28.6292 45.2549 28.5035 44.7383 28.5223ZM59.643 22.9835C59.959 22.9317 60.3277 22.9059 60.749 22.88C61.1703 22.8541 61.5917 22.8282 62.0393 22.8282C62.487 22.8282 62.9347 22.8023 63.356 22.8023H64.541C65.8163 22.7732 67.0856 22.9841 68.2803 23.4235C69.276 23.7942 70.1754 24.3777 70.9137 25.1317C71.6159 25.8739 72.1459 26.757 72.4673 27.72C72.8231 28.7804 73.0009 29.8905 72.994 31.007C72.9972 32.0685 72.8374 33.1243 72.52 34.1388C72.2075 35.1309 71.6872 36.0478 70.9927 36.8306C70.2402 37.6479 69.3143 38.2929 68.2803 38.72C67.0096 39.2247 65.648 39.4712 64.2777 39.4447C64.0143 39.4447 63.6457 39.4447 63.198 39.4188C62.7503 39.3929 62.3027 39.3929 61.8287 39.367C61.3547 39.3412 60.9333 39.3412 60.512 39.3153C60.0907 39.2894 59.8273 39.2635 59.643 39.2376V22.9835ZM64.62 24.8212H63.909C63.6542 24.8169 63.3993 24.8255 63.1453 24.847C62.9083 24.8729 62.6713 24.8729 62.4607 24.8988C62.25 24.9247 62.092 24.9247 61.9867 24.9506V37.2706C62.1343 37.2967 62.2846 37.3054 62.4343 37.2964C62.6713 37.2964 62.9083 37.3223 63.1453 37.3223C63.3823 37.3223 63.6457 37.3482 63.8563 37.3482H64.3303C65.342 37.3807 66.3487 37.1952 67.2797 36.8047C68.0198 36.4763 68.6697 35.9795 69.1757 35.3553C69.6539 34.7517 69.9951 34.0545 70.1763 33.3106C70.3681 32.5308 70.4653 31.7316 70.466 30.9294C70.4586 30.2129 70.3613 29.5001 70.1763 28.807C69.9983 28.0904 69.6661 27.4197 69.202 26.84C68.7204 26.2169 68.0985 25.7119 67.385 25.3647C66.7003 25.0023 65.7523 24.8212 64.62 24.8212ZM85.476 38.1764C84.8512 38.6072 84.1567 38.931 83.422 39.1341C82.5572 39.3774 81.6618 39.4994 80.7623 39.4964C79.8473 39.511 78.9371 39.3619 78.0763 39.0564C77.3528 38.7855 76.71 38.3406 76.2067 37.7623C75.7037 37.1733 75.3354 36.4848 75.127 35.7435C74.8834 34.8845 74.768 33.9952 74.7847 33.1035C74.7847 31.0329 75.3113 29.4282 76.3383 28.3412C77.3653 27.2541 78.8663 26.6847 80.7887 26.6847C81.4087 26.6911 82.0265 26.7605 82.632 26.8917C83.2329 27.0234 83.7985 27.2792 84.291 27.6423C84.8003 28.0445 85.2062 28.5587 85.476 29.1435C85.792 29.7647 85.9237 30.5929 85.9237 31.6282C85.9237 31.887 85.9237 32.1717 85.8973 32.4823C85.871 32.7929 85.8447 33.1294 85.792 33.44H76.9703C76.9967 34.8635 77.339 35.9247 77.9973 36.6494C78.6557 37.3741 79.788 37.7364 81.368 37.7364C82.0076 37.745 82.6427 37.6307 83.2377 37.4C83.7499 37.2209 84.2234 36.9487 84.6333 36.5976L85.476 38.1764ZM83.8433 31.8612C83.8697 30.6188 83.6063 29.7647 83.0797 29.247C82.553 28.7294 81.7893 28.4964 80.815 28.4964C79.709 28.4964 78.84 28.7553 78.208 29.247C77.576 29.7388 77.181 30.6188 77.0757 31.8612H83.8433ZM94.6927 35.7694C94.6987 35.4962 94.6257 35.2269 94.482 34.9929C94.3193 34.7736 94.1133 34.5888 93.8763 34.4494C93.6045 34.2844 93.3125 34.1539 93.0073 34.0612C92.6913 33.9576 92.3227 33.8282 91.9803 33.7506C91.5327 33.6212 91.0587 33.4917 90.611 33.3364C90.1721 33.1961 89.7554 32.9957 89.3733 32.7412C89.0022 32.485 88.6959 32.1485 88.478 31.7576C88.2271 31.2878 88.1089 30.7605 88.1357 30.2306C88.1357 29.04 88.5043 28.1341 89.2417 27.5388C89.979 26.9435 91.006 26.6588 92.3227 26.6588C93.1656 26.6469 94.0065 26.7426 94.8243 26.9435C95.4256 27.1021 96.0151 27.301 96.5887 27.5388L96.062 29.3506C95.566 29.1211 95.0559 28.9223 94.5347 28.7553C93.9038 28.5628 93.2466 28.4667 92.586 28.4706C91.9924 28.4346 91.4002 28.56 90.8743 28.8329C90.5057 29.0659 90.3213 29.5317 90.3213 30.1788C90.3142 30.4118 90.3886 30.6402 90.532 30.8259C90.6849 31.0139 90.8726 31.1719 91.085 31.2917C91.3406 31.4393 91.6151 31.5525 91.9013 31.6282C92.2173 31.7317 92.5333 31.8353 92.8757 31.9129C93.3569 32.0359 93.8315 32.1828 94.2977 32.3529C94.7553 32.5108 95.1893 32.7285 95.588 33C95.9825 33.2669 96.3073 33.6216 96.536 34.0353C96.7961 34.5212 96.9232 35.0653 96.9047 35.6141C96.9221 36.1362 96.8253 36.6559 96.6208 37.1382C96.4164 37.6204 96.1091 38.0539 95.7197 38.4094C94.9297 39.1341 93.771 39.4706 92.191 39.4706C90.6286 39.5008 89.0825 39.1542 87.688 38.4612L88.2937 36.6235C88.8366 36.8982 89.4 37.1318 89.979 37.3223C90.6486 37.5471 91.3517 37.6609 92.0593 37.6588C92.7174 37.6872 93.3714 37.5443 93.9553 37.2447C94.4557 37.0117 94.6927 36.52 94.6927 35.7694ZM99.8803 27.0212H102.04V39.16H99.8803V27.0212ZM116.497 39.2894C116.513 39.963 116.375 40.6316 116.092 41.2455C115.809 41.8593 115.39 42.4027 114.864 42.8353C113.916 43.6117 112.52 44 110.703 44C109.839 44.0189 108.975 43.9582 108.123 43.8188C107.54 43.7202 106.973 43.5462 106.437 43.3012L107.148 41.3859C107.359 41.4894 107.596 41.567 107.859 41.6706C108.07 41.7768 108.291 41.8634 108.518 41.9294C108.807 42.007 109.123 42.0588 109.413 42.1106C109.7 42.1598 109.991 42.1858 110.282 42.1882C110.92 42.1983 111.557 42.1287 112.178 41.9812C112.678 41.8517 113.284 41.6447 113.574 41.36C113.875 41.0709 114.086 40.7025 114.179 40.2988C114.292 39.7888 114.345 39.2677 114.337 38.7459V37.8917H114.074C113.745 38.3416 113.286 38.6842 112.757 38.8753C112.022 39.1296 111.246 39.2523 110.466 39.2376C108.676 39.2376 107.359 38.7717 106.516 37.8141C105.674 36.8564 105.252 35.3294 105.252 33.2329C105.252 31.1364 105.805 29.5576 106.885 28.4188C107.965 27.28 109.624 26.7364 111.783 26.7364C112.673 26.7221 113.563 26.7827 114.443 26.9176C115.123 27.0263 115.792 27.1908 116.444 27.4094V39.2894H116.497ZM110.967 37.4517C111.915 37.4517 112.678 37.2188 113.205 36.727C113.732 36.2353 114.311 35.64 114.311 34.8635V28.9106C113.906 28.7917 113.492 28.7052 113.073 28.6517C112.54 28.5872 112.004 28.5526 111.467 28.5482C110.256 28.5482 109.281 28.9365 108.597 29.687C107.912 30.4376 107.57 31.6282 107.57 33.1812C107.57 34.527 107.833 35.5882 108.333 36.3129C108.86 37.0894 109.729 37.4517 110.967 37.4517ZM128.9 39.16V32.4564C128.9 31.1623 128.689 30.1788 128.268 29.5317C127.846 28.8847 127.083 28.5741 126.003 28.5741C125.145 28.5522 124.304 28.8067 123.607 29.2988C122.983 29.7722 122.524 30.4229 122.29 31.1623V39.16H120.131V27.0212H122.053V28.6517H122.264C122.756 28.0797 123.355 27.6053 124.028 27.2541C124.844 26.8516 125.749 26.6559 126.661 26.6847C127.301 26.6757 127.939 26.7541 128.557 26.9176C129.09 27.0629 129.566 27.3601 129.927 27.7717C130.331 28.2448 130.619 28.8026 130.769 29.4023C130.978 30.2494 131.075 31.1192 131.059 31.9906V39.1341H128.9V39.16ZM151.283 37.3482L158.367 28.8329H151.283V27.0212H161V28.8588L153.89 37.3741H161V39.1859H151.283V37.3482Z" fill="white"/>
</svg>
