<svg width="67" height="48" viewBox="0 0 67 48" fill="none" xmlns="http://www.w3.org/2000/svg">
<g clip-path="url(#clip0_1101_117)">
<path d="M0.980648 0H6.01109V1.9613H1.9613V46.0402H6.01109V48H0.980648H0V47.0194V0.980648V0H0.980648ZM60.6523 0H65.6827H66.6634V0.980648V47.0194V48H65.6827H60.6523V46.0402H64.7021V1.9613H60.6523V0Z" fill="#8236CB"/>
<path fill-rule="evenodd" clip-rule="evenodd" d="M36.6668 6.01111H48.658H60.652V18.0037H48.658V41.9904H36.6668V18.0037H24.6742V6.01111H36.6668Z" fill="#16D8D8"/>
<path fill-rule="evenodd" clip-rule="evenodd" d="M6.94135 6.01111H18.9325V41.9904H6.94135V6.01111Z" fill="#8230CF"/>
<path fill-rule="evenodd" clip-rule="evenodd" d="M18.9341 41.9904H12.9378L18.9341 35.9941V41.9904ZM6.94006 6.01111H18.9341L6.94006 18.0022V6.01111ZM18.9327 18.0052H6.94006L18.9327 29.9978H18.9341L6.94006 41.9904V29.9978H18.9327V18.0052Z" fill="#A758F0"/>
<path fill-rule="evenodd" clip-rule="evenodd" d="M36.6668 41.9904H42.6631L36.6668 35.9941V41.9904ZM24.6742 18.0037H36.6668H48.658H60.652L48.658 6.01111L36.6668 18.0022V6.01111H48.658V18.0037L36.6668 29.9963V18.0037L24.6742 6.01111V18.0037ZM60.652 6.01111H54.6557L60.652 12.0074V6.01111ZM48.658 29.9993H36.6654L48.658 41.9904V29.9993Z" fill="#00FFF2"/>
</g>
<defs>
<clipPath id="clip0_1101_117">
<rect width="67" height="48" fill="white"/>
</clipPath>
</defs>
</svg>
