<svg width="22" height="22" viewBox="0 0 22 22" fill="none" xmlns="http://www.w3.org/2000/svg">
<path d="M16.6374 0H5.36257C5.01107 0 4.72516 0.285911 4.72516 0.637414V21.3626C4.72516 21.7141 5.01111 22 5.36257 22H16.6374C16.9889 22 17.2748 21.7141 17.2748 21.3626V0.637414C17.2748 0.285911 16.9885 0 16.6374 0ZM15.3057 1.0694C15.4904 1.0694 15.6405 1.21948 15.6405 1.40453C15.6405 1.58919 15.4904 1.73927 15.3057 1.73927C15.1207 1.73927 14.9706 1.58923 14.9706 1.40453C14.9706 1.21986 15.1211 1.0694 15.3057 1.0694ZM14.6264 1.25152C14.7109 1.25152 14.7794 1.32 14.7794 1.40453C14.7794 1.48901 14.7109 1.5575 14.6264 1.5575C14.5415 1.5575 14.4734 1.48901 14.4734 1.40453C14.4734 1.32 14.5419 1.25152 14.6264 1.25152ZM14.2217 1.25152C14.3063 1.25152 14.3747 1.32 14.3747 1.40453C14.3747 1.48901 14.3063 1.5575 14.2217 1.5575C14.1372 1.5575 14.0688 1.48901 14.0688 1.40453C14.0684 1.32 14.1369 1.25152 14.2217 1.25152ZM9.74372 1.0694H12.2559V1.73923H9.74372V1.0694ZM12.2559 21.0195H9.74368V20.3496H12.2559V21.0195ZM15.945 19.5494H6.05465V2.52128H15.945V19.5494Z" fill="#3BF5BD"/>
</svg>
